<svg viewBox="0 0 24 24" xmlns="http://www.w3.org/2000/svg">
  <!-- Large sparkle -->
  <path d="M12 2C12.5 4.5 13.5 7 16 8C18.5 9 21 8.5 21 12C21 15.5 18.5 15 16 16C13.5 17 12.5 19.5 12 22C11.5 19.5 10.5 17 8 16C5.5 15 3 15.5 3 12C3 8.5 5.5 9 8 8C10.5 7 11.5 4.5 12 2Z" fill="currentColor"/>
  
  <!-- Small sparkle -->
  <path d="M19 3C19.2 4 19.8 5 21 5.2C22 5.4 22.8 5.8 22.8 6.5C22.8 7.2 22 7.6 21 7.8C19.8 8 19.2 9 19 10C18.8 9 18.2 8 17 7.8C16 7.6 15.2 7.2 15.2 6.5C15.2 5.8 16 5.4 17 5.2C18.2 5 18.8 4 19 3Z" fill="currentColor"/>
  
  <!-- Tiny dot -->
  <circle cx="6" cy="18" r="1" fill="currentColor"/>
</svg>
